<?xml version="1.0" encoding="utf-8"?>
<!-- Generator: Adobe Illustrator 23.0.2, SVG Export Plug-In . SVG Version: 6.00 Build 0)  -->
<svg version="1.1" xmlns="http://www.w3.org/2000/svg" xmlns:xlink="http://www.w3.org/1999/xlink" x="0px" y="0px"
	 viewBox="0 0 18 23" style="enable-background:new 0 0 18 23;" xml:space="preserve"  fill="#ea1d2c">
<style type="text/css">
	.st0{fill-rule:evenodd;clip-rule:evenodd;}
</style>
<path class="st0" d="M8.7,0.2c-1.1,0-2,0.3-2.6,0.9c-0.6,0.6-1,1.4-1.2,2.2C4.7,3.9,4.6,4.4,4.6,5H2C0.9,5,0,5.9,0,7l0.1,13
	c0,1.7,1.3,3,3,3h11.9c1.7,0,3-1.3,3-3L18,7c0-1.1-0.9-2-2-2h-3.2c-0.1-0.6-0.1-1.1-0.3-1.6c-0.2-0.8-0.6-1.7-1.2-2.2
	C10.6,0.6,9.8,0.2,8.7,0.2z M11.4,6.5c0,0.6,0,1.2,0,1.8v0	v0c0,0.3,0,0.6,0,0.8c0,0.4,0.3,0.7,0.8,0.7c0.4,0,0.7-0.3,0.7-0.8
	c0-0.3,0-0.5,0-0.8c0-0.6,0-1.2,0-1.8H16c0.3,0,0.5,0.2,0.5,0.5l-0.1,13c0,0.8-0.7,1.5-1.5,1.5H3.1c-0.8,0-1.5-0.7-1.5-1.5L1.5,7
	c0-0.3,0.2-0.5,0.5-0.5h2.5c0,0.6,0,1.2,0,1.8c0,0.3,0,0.5,0,0.8c0,0.4,0.3,0.8,0.7,0.8C5.6,9.9,6,9.5,6,9.1c0-0.3,0-0.6,0-0.8v0
	c0-0.6,0-1.2,0-1.8H11.4z M11.3,5c0-0.4-0.1-0.8-0.2-1.2c-0.2-0.7-0.4-1.2-0.8-1.5C9.9,2,9.5,1.8,8.7,1.8C7.9,1.8,7.4,2,7.1,2.3
	C6.7,2.6,6.5,3.1,6.3,3.8C6.2,4.2,6.1,4.6,6.1,5H11.3z"/>
</svg>
