<?xml version="1.0" encoding="utf-8"?>
<!-- Generator: Adobe Illustrator 23.0.2, SVG Export Plug-In . SVG Version: 6.00 Build 0)  -->
<svg width="24px" height="24px" version="1.1"  xmlns="http://www.w3.org/2000/svg" xmlns:xlink="http://www.w3.org/1999/xlink" x="0px" y="0px"
	 viewBox="0 0 24 24" style="enable-background:new 0 0 24 24;" xml:space="preserve">

<path class="st0" d="M21.2,20.1L18,16.9c-0.1-0.1-0.1-0.1-0.2-0.1c1.4-1.6,2.1-3.7,2.1-5.8c0-4.9-4-8.8-8.9-8.8l-0.1,0
	c-2.4,0-4.6,1-6.3,2.7C3,6.4,2.1,8.7,2.1,11.1c0,4.9,4,8.8,8.9,8.8l0.1,0c2,0,3.9-0.7,5.4-1.9c0,0.1,0.1,0.2,0.2,0.2l3.2,3.2
	c0.2,0.2,0.4,0.3,0.7,0.3s0.5-0.1,0.7-0.3C21.5,21,21.5,20.4,21.2,20.1z M11.1,18.4C11,18.4,11,18.4,11.1,18.4
	c-4.1,0-7.4-3.3-7.5-7.3c0-4.1,3.3-7.4,7.3-7.5c0,0,0,0,0.1,0c4.1,0,7.4,3.3,7.4,7.3C18.4,15,15.1,18.4,11.1,18.4z"/>
</svg>
