<?xml version="1.0" encoding="utf-8"?>
<!-- Generator: Adobe Illustrator 23.0.2, SVG Export Plug-In . SVG Version: 6.00 Build 0)  -->
<svg width="24px" height="24px" version="1.1" xmlns="http://www.w3.org/2000/svg" xmlns:xlink="http://www.w3.org/1999/xlink" x="0px" y="0px"
	 viewBox="0 0 24 24" style="enable-background:new 0 0 24 24;" xml:space="preserve">
<style type="text/css">
	{fill:#3F3E3E;}
</style>
<path class="st0" d="M22.4,9.4L12,2.1L1.6,9.4c-0.3,0.2-0.4,0.7-0.2,1c0.2,0.3,0.7,0.4,1,0.2L3,10.2V18c0,2.2,1.8,4,4,4h10
	c2.2,0,4-1.8,4-4v-7.8l0.6,0.4c0.3,0.2,0.8,0.2,1-0.2C22.9,10.1,22.8,9.6,22.4,9.4z M15,20.5H9v-4.8c0-1.5,1.3-2.7,3-2.7
	s3,1.2,3,2.7V20.5z"/>
</svg>
