<svg width="54" height="54" viewBox="0 0 54 54" fill="none" xmlns="http://www.w3.org/2000/svg">
<path d="M23.637 32.0582L32.4197 26.9998L23.637 21.9414V32.0582Z" fill="#585858"/>
<path d="M27 0C12.0906 0 0 12.0906 0 27C0 41.9094 12.0906 54 27 54C41.9094 54 54 41.9094 54 27C54 12.0906 41.9094 0 27 0ZM43.8709 27.0276C43.8709 27.0276 43.8709 32.5033 43.1763 35.1438C42.7869 36.589 41.6474 37.7286 40.2021 38.1175C37.5617 38.8125 27 38.8125 27 38.8125C27 38.8125 16.4659 38.8125 13.7979 38.0899C12.3526 37.701 11.2131 36.561 10.8237 35.1157C10.1287 32.5033 10.1287 27 10.1287 27C10.1287 27 10.1287 21.5247 10.8237 18.8843C11.2126 17.439 12.3802 16.2714 13.7979 15.8825C16.4383 15.1875 27 15.1875 27 15.1875C27 15.1875 37.5617 15.1875 40.2021 15.9101C41.6474 16.299 42.7869 17.439 43.1763 18.8843C43.8989 21.5247 43.8709 27.0276 43.8709 27.0276Z" fill="#585858"/>
</svg>
