<svg width="55" height="55" viewBox="0 0 55 55" fill="none" xmlns="http://www.w3.org/2000/svg">
<path d="M27.5 0C12.3366 0 0 12.3366 0 27.5C0 42.6623 12.3366 55 27.5 55C42.6623 55 55 42.6623 55 27.5C55 12.3366 42.6645 0 27.5 0ZM39.7679 21.206C39.7801 21.4785 39.7867 21.7532 39.7867 22.0279C39.7867 30.3922 33.4218 40.0337 21.7765 40.0337C18.2019 40.0337 14.8743 38.9892 12.074 37.1925C12.5692 37.2512 13.0732 37.2811 13.5838 37.2811C16.5503 37.2811 19.2786 36.2686 21.4453 34.5716C18.676 34.5207 16.3376 32.6907 15.5323 30.1751C15.9178 30.2482 16.3155 30.2892 16.722 30.2892C17.2991 30.2892 17.8596 30.2139 18.3902 30.0688C15.4946 29.4883 13.3136 26.9306 13.3136 23.8623C13.3136 23.8357 13.3136 23.808 13.3147 23.7825C14.1676 24.2555 15.1435 24.5413 16.1803 24.5734C14.4833 23.4402 13.3656 21.5018 13.3656 19.3063C13.3656 18.1454 13.6769 17.0576 14.2219 16.1227C17.3423 19.9532 22.008 22.4721 27.2674 22.738C27.1588 22.2738 27.1045 21.792 27.1045 21.2946C27.1045 17.7998 29.9381 14.9652 33.4329 14.9652C35.254 14.9652 36.8967 15.7339 38.0532 16.9635C39.4965 16.6799 40.8479 16.1548 42.0741 15.4271C41.5978 16.9059 40.5976 18.1454 39.2871 18.9297C40.5688 18.7768 41.7917 18.4378 42.9226 17.9338C42.0786 19.201 41.0052 20.3165 39.7679 21.206Z" fill="#585858"/>
</svg>
