<svg width="40" height="40" viewBox="0 0 40 40" fill="none" xmlns="http://www.w3.org/2000/svg">
<path fill-rule="evenodd" clip-rule="evenodd" d="M23.0767 6.8244C23.4891 6.40904 24.1605 6.40783 24.5744 6.8217L27.3665 9.61384C26.3798 11.3771 26.6345 13.6467 28.1315 15.1437C29.6286 16.6408 31.8982 16.8954 33.6614 15.9087L36.3819 18.6292C36.7947 19.042 36.7947 19.7114 36.3819 20.1242L17.2538 39.2523C16.841 39.6651 16.1717 39.6651 15.7589 39.2523L12.9084 36.4018C13.595 34.7268 13.2594 32.7325 11.9011 31.3741C10.5428 30.0158 8.54845 29.6803 6.87343 30.3668L4.0203 27.5137C3.60853 27.1019 3.60733 26.4347 4.01761 26.0214L23.0767 6.8244Z" fill="#CBE6D6"/>
<mask id="mask0" mask-type="alpha" maskUnits="userSpaceOnUse" x="3" y="6" width="35" height="34">
<path fill-rule="evenodd" clip-rule="evenodd" d="M23.0767 6.8244C23.4891 6.40904 24.1605 6.40782 24.5744 6.8217L27.3665 9.61384C26.3798 11.3771 26.6345 13.6467 28.1315 15.1437C29.6286 16.6408 31.8982 16.8954 33.6614 15.9087L36.3819 18.6292C36.7947 19.042 36.7947 19.7114 36.3819 20.1242L17.2538 39.2523C16.841 39.6651 16.1717 39.6651 15.7589 39.2523L12.9084 36.4018C13.595 34.7268 13.2594 32.7325 11.9011 31.3741C10.5428 30.0158 8.54845 29.6803 6.87343 30.3668L4.0203 27.5137C3.60853 27.1019 3.60733 26.4347 4.01761 26.0214L23.0767 6.8244Z" fill="#E7A74E"/>
</mask>
<g mask="url(#mask0)">
<path d="M23.833 5.43738L37.5879 19.1923L30.9958 25.7844L17.2409 12.0295L23.833 5.43738Z" fill="white"/>
</g>
<path fill-rule="evenodd" clip-rule="evenodd" d="M18.8263 13.542C19.01 13.3583 19.3079 13.3583 19.4916 13.542L20.354 14.4044C20.5377 14.5881 20.5377 14.8859 20.354 15.0697C20.1703 15.2534 19.8724 15.2534 19.6887 15.0697L18.8263 14.2072C18.6426 14.0235 18.6426 13.7257 18.8263 13.542ZM21.4136 16.1292C21.5973 15.9455 21.8951 15.9455 22.0788 16.1292L23.8036 17.8541C23.9874 18.0378 23.9874 18.3356 23.8036 18.5193C23.6199 18.703 23.3221 18.703 23.1384 18.5193L21.4136 16.7945C21.2299 16.6108 21.2299 16.3129 21.4136 16.1292ZM24.8632 19.5789C25.0469 19.3952 25.3448 19.3952 25.5285 19.5789L27.2533 21.3037C27.437 21.4874 27.437 21.7853 27.2533 21.969C27.0696 22.1527 26.7718 22.1527 26.5881 21.969L24.8632 20.2442C24.6795 20.0605 24.6795 19.7626 24.8632 19.5789ZM28.3129 23.0286C28.4966 22.8449 28.7944 22.8449 28.9782 23.0286L29.8406 23.891C30.0243 24.0747 30.0243 24.3725 29.8406 24.5562C29.6569 24.7399 29.359 24.7399 29.1753 24.5562L28.3129 23.6938C28.1292 23.5101 28.1292 23.2123 28.3129 23.0286Z" fill="#50A773"/>
<path fill-rule="evenodd" clip-rule="evenodd" d="M5.66242 27.9879C5.00466 27.3301 5.00466 26.2637 5.66242 25.6059L13.1343 18.134C13.3792 17.8891 13.7763 17.8891 14.0213 18.134C14.2662 18.379 14.2662 18.7761 14.0213 19.0211L6.54944 26.4929C6.38155 26.6608 6.38155 26.933 6.54944 27.1009L6.59334 27.1448C6.83828 27.3897 6.83828 27.7868 6.59334 28.0318C6.3484 28.2767 5.95127 28.2767 5.70633 28.0318L5.66242 27.9879Z" fill="white"/>
<path fill-rule="evenodd" clip-rule="evenodd" d="M15.8377 16.5669C16.0826 16.8118 16.0826 17.209 15.8377 17.4539L15.5241 17.7675C15.2791 18.0124 14.882 18.0124 14.6371 17.7675C14.3921 17.5226 14.3921 17.1254 14.6371 16.8805L14.9507 16.5669C15.1956 16.3219 15.5928 16.3219 15.8377 16.5669Z" fill="white"/>
<path d="M11.3745 26.682C11.3075 26.6149 11.2855 26.5474 11.2864 26.4572C11.288 26.2766 11.4247 26.14 11.6052 26.1383L23.3846 26.0295C23.5651 26.0279 23.6993 26.162 23.6976 26.3425C23.6959 26.5231 23.5593 26.6597 23.3788 26.6614L11.5994 26.7702C11.5091 26.771 11.4193 26.7267 11.3745 26.682Z" fill="#50A773"/>
<path fill-rule="evenodd" clip-rule="evenodd" d="M11.0936 26.6628C11.0674 26.5931 11.06 26.5242 11.0606 26.46C11.0634 26.1534 11.3034 25.9134 11.6101 25.9105L23.3895 25.8017C23.6958 25.7989 23.9308 26.0339 23.9279 26.3402C23.9251 26.6469 23.6851 26.8869 23.3784 26.8897L11.599 26.9985C11.4444 26.9999 11.298 26.9293 11.2139 26.8452C11.1618 26.7931 11.1203 26.7335 11.0936 26.6628ZM11.2886 26.4574C11.2878 26.5477 11.3097 26.6152 11.3768 26.6823C11.4215 26.727 11.5114 26.7713 11.6016 26.7704L23.381 26.6616C23.5616 26.66 23.6982 26.5233 23.6999 26.3428C23.7015 26.1623 23.5674 26.0281 23.3869 26.0298L11.6075 26.1386C11.427 26.1403 11.2903 26.2769 11.2886 26.4574Z" fill="#50A773"/>
<path d="M16.0496 23.8858C15.3341 23.1703 15.3226 21.9745 16.0742 21.2229C16.8258 20.4713 17.9993 20.4605 18.7371 21.1983C19.475 21.9361 19.4641 23.1096 18.7125 23.8612C17.9609 24.6128 16.7875 24.6236 16.0496 23.8858ZM18.2816 21.6538C17.8121 21.1843 17.0224 21.169 16.5214 21.6701C16.0431 22.1484 16.0132 22.9384 16.5051 23.4303C16.997 23.9222 17.7643 23.9151 18.2654 23.414C18.7436 22.9358 18.7735 22.1457 18.2816 21.6538Z" fill="#50A773"/>
<path fill-rule="evenodd" clip-rule="evenodd" d="M15.8875 24.0491C15.086 23.2476 15.0717 21.9074 15.9154 21.0637C16.7573 20.2218 18.0752 20.2101 18.9009 21.0358C19.7265 21.8614 19.7149 23.1793 18.873 24.0212C18.031 24.8631 16.7132 24.8748 15.8875 24.0491ZM18.1195 21.8172C17.7351 21.4328 17.0898 21.422 16.6818 21.8301C16.2911 22.2208 16.2675 22.8663 16.6689 23.2678C17.073 23.6718 17.6958 23.6656 18.1066 23.2548C18.4973 22.8642 18.5209 22.2186 18.1195 21.8172ZM16.075 21.2233C15.3234 21.9749 15.335 23.1707 16.0504 23.8862C16.7883 24.624 17.9618 24.6132 18.7133 23.8616C19.4649 23.11 19.4758 21.9365 18.7379 21.1987C18.0001 20.4609 16.8266 20.4717 16.075 21.2233ZM16.5222 21.6705C17.0233 21.1694 17.8129 21.1847 18.2824 21.6542C18.7743 22.1461 18.7445 22.9362 18.2662 23.4144C17.7651 23.9155 16.9978 23.9226 16.5059 23.4307C16.0141 22.9388 16.0439 22.1488 16.5222 21.6705Z" fill="#50A773"/>
<path d="M16.2269 31.5791C15.5114 30.8636 15.4999 29.6677 16.2515 28.9161C16.9803 28.1873 18.1765 28.1537 18.9144 28.8915C19.6522 29.6294 19.6414 30.8029 18.8898 31.5545C18.1382 32.306 16.9423 32.2945 16.2269 31.5791ZM18.4589 29.3471C17.9893 28.8775 17.1997 28.8623 16.6986 29.3633C16.2203 29.8416 16.1905 30.6317 16.6824 31.1235C17.1743 31.6154 17.9415 31.6083 18.4426 31.1073C18.9209 30.629 18.9284 29.8166 18.4589 29.3471Z" fill="#50A773"/>
<path fill-rule="evenodd" clip-rule="evenodd" d="M16.0633 31.7423C15.2618 30.9407 15.2475 29.6005 16.0912 28.7568C16.9086 27.9395 18.2493 27.9015 19.0767 28.7289C19.9023 29.5545 19.8906 30.8724 19.0487 31.7143C18.205 32.5581 16.8648 32.5438 16.0633 31.7423ZM18.2953 29.5103C17.9109 29.1259 17.2656 29.1152 16.8576 29.5232C16.4669 29.9139 16.4432 30.5595 16.8447 30.9609C17.2487 31.365 17.8716 31.3587 18.2824 30.948C18.6703 30.56 18.677 29.892 18.2953 29.5103ZM16.2508 28.9164C15.4992 29.668 15.5107 30.8639 16.2262 31.5793C16.9417 32.2948 18.1375 32.3063 18.8891 31.5547C19.6407 30.8031 19.6516 29.6297 18.9137 28.8918C18.1759 28.154 16.9796 28.1876 16.2508 28.9164ZM16.698 29.3636C17.199 28.8625 17.9887 28.8778 18.4582 29.3473C18.9277 29.8169 18.9202 30.6293 18.442 31.1076C17.9409 31.6086 17.1736 31.6157 16.6817 31.1238C16.1898 30.6319 16.2197 29.8419 16.698 29.3636Z" fill="#50A773"/>
<path fill-rule="evenodd" clip-rule="evenodd" d="M3.67426 1.19944L4.86116 2.80042L4.86301 2.80274C4.97839 2.94664 5.15395 3.0368 5.33681 3.0368C5.46249 3.0368 5.57984 2.978 5.6588 2.93845L5.67041 2.93264L5.68429 2.92571L5.69654 2.9162C5.95636 2.71456 6.02323 2.35503 5.81318 2.08382L4.62809 0.485201L4.62576 0.482212C4.42329 0.22246 4.06249 0.156293 3.7909 0.367064C3.53108 0.568701 3.46421 0.92823 3.67426 1.19944Z" fill="white"/>
<path fill-rule="evenodd" clip-rule="evenodd" d="M5.8505 4.13642L10.9474 11.0196L10.9493 11.022C11.0647 11.1659 11.2402 11.256 11.4231 11.256C11.5405 11.256 11.6624 11.2256 11.7806 11.1371L11.7828 11.1354C12.0426 10.9338 12.1095 10.5743 11.8995 10.3031L6.80442 3.42228L6.80203 3.41922C6.59956 3.15947 6.23876 3.0933 5.96717 3.30408C5.70736 3.5057 5.64049 3.86521 5.8505 4.13642Z" fill="white"/>
<path fill-rule="evenodd" clip-rule="evenodd" d="M10.5495 2.36472L13.2944 9.9679L13.2951 9.96981C13.3857 10.2107 13.623 10.3564 13.8593 10.3564C13.8821 10.3564 13.9036 10.3536 13.9201 10.3511C13.9363 10.3485 13.9527 10.3452 13.9656 10.3426L13.9669 10.3424C13.9812 10.3395 13.9917 10.3375 14.0011 10.336C14.0107 10.3345 14.0139 10.3345 14.0131 10.3345L14.0432 10.3345L14.0712 10.3233C14.3598 10.2081 14.5453 9.86148 14.4233 9.5522L11.6774 1.94645L11.6764 1.94392C11.5604 1.65467 11.2115 1.46994 10.9016 1.59362C10.613 1.7088 10.4274 2.05543 10.5495 2.36472Z" fill="white"/>
<path fill-rule="evenodd" clip-rule="evenodd" d="M8.54036 13.0246L9.72333 13.899C9.84144 13.9872 9.96316 14.0176 10.0805 14.0176C10.2647 14.0176 10.4431 13.9259 10.5591 13.7554C10.7613 13.4908 10.7072 13.1053 10.4335 12.9211L9.25166 12.0693C8.98035 11.8608 8.62105 11.9273 8.41916 12.1863C8.21307 12.4507 8.26587 12.8391 8.54036 13.0246Z" fill="white"/>
<path fill-rule="evenodd" clip-rule="evenodd" d="M3.25154 9.15164L7.13633 11.9767C7.25427 12.0646 7.37582 12.0949 7.49295 12.0949C7.58332 12.0949 7.6777 12.0728 7.76093 12.0331C7.84083 11.9949 7.92053 11.9357 7.9736 11.852C8.17334 11.5876 8.11883 11.2042 7.84634 11.0205L3.96257 8.19619C3.69847 7.99307 3.31214 8.04541 3.12631 8.31746C2.92418 8.58191 2.97813 8.96728 3.25154 9.15164Z" fill="white"/>
<path fill-rule="evenodd" clip-rule="evenodd" d="M3.53663 15.6554L8.22471 16.8795C8.2514 16.8916 8.27819 16.9004 8.30778 16.9053C8.33741 16.9103 8.36568 16.9102 8.38467 16.9102L8.38841 16.9102C8.65347 16.9102 8.89471 16.7342 8.95756 16.4643C9.04617 16.1584 8.8603 15.8346 8.53942 15.7473L3.83955 14.5201C3.53363 14.4303 3.20822 14.6143 3.11954 14.9348C3.02842 15.2418 3.21449 15.5677 3.53663 15.6554Z" fill="white"/>
</svg>
