<svg width="54" height="54" viewBox="0 0 54 54" fill="none" xmlns="http://www.w3.org/2000/svg">
<path d="M32.168 27C32.168 29.8542 29.8542 32.168 27 32.168C24.1458 32.168 21.832 29.8542 21.832 27C21.832 24.1458 24.1458 21.832 27 21.832C29.8542 21.832 32.168 24.1458 32.168 27Z" fill="#585858"/>
<path d="M39.0861 17.8566C38.8376 17.1834 38.4413 16.5741 37.9263 16.0739C37.4262 15.559 36.8172 15.1626 36.1436 14.9142C35.5973 14.702 34.7767 14.4495 33.2651 14.3807C31.6299 14.3061 31.1396 14.29 27 14.29C22.8599 14.29 22.3697 14.3057 20.7349 14.3803C19.2233 14.4495 18.4022 14.702 17.8564 14.9142C17.1828 15.1626 16.5734 15.559 16.0737 16.0739C15.5587 16.5741 15.1624 17.183 14.9135 17.8566C14.7014 18.4029 14.4488 19.224 14.38 20.7356C14.3054 22.3703 14.2894 22.8606 14.2894 27.0007C14.2894 31.1403 14.3054 31.6306 14.38 33.2658C14.4488 34.7773 14.7014 35.598 14.9135 36.1443C15.1624 36.8179 15.5583 37.4268 16.0733 37.927C16.5734 38.442 17.1823 38.8383 17.8559 39.0867C18.4022 39.2993 19.2233 39.5519 20.7349 39.6207C22.3697 39.6952 22.8595 39.7109 26.9996 39.7109C31.1401 39.7109 31.6303 39.6952 33.2647 39.6207C34.7763 39.5519 35.5973 39.2993 36.1436 39.0867C37.4958 38.5652 38.5645 37.4965 39.0861 36.1443C39.2982 35.598 39.5508 34.7773 39.62 33.2658C39.6946 31.6306 39.7102 31.1403 39.7102 27.0007C39.7102 22.8606 39.6946 22.3703 39.62 20.7356C39.5512 19.224 39.2986 18.4029 39.0861 17.8566ZM27 34.9615C22.6029 34.9615 19.0383 31.3974 19.0383 27.0003C19.0383 22.6031 22.6029 19.039 27 19.039C31.3967 19.039 34.9612 22.6031 34.9612 27.0003C34.9612 31.3974 31.3967 34.9615 27 34.9615ZM35.276 20.5848C34.2485 20.5848 33.4155 19.7518 33.4155 18.7243C33.4155 17.6968 34.2485 16.8637 35.276 16.8637C36.3035 16.8637 37.1365 17.6968 37.1365 18.7243C37.1361 19.7518 36.3035 20.5848 35.276 20.5848Z" fill="#585858"/>
<path d="M27 0C12.0906 0 0 12.0906 0 27C0 41.9094 12.0906 54 27 54C41.9094 54 54 41.9094 54 27C54 12.0906 41.9094 0 27 0ZM42.4104 33.392C42.3354 35.0424 42.073 36.1692 41.6898 37.1555C40.8844 39.2381 39.2381 40.8844 37.1555 41.6898C36.1696 42.073 35.0424 42.335 33.3924 42.4104C31.7391 42.4858 31.2109 42.5039 27.0004 42.5039C22.7895 42.5039 22.2617 42.4858 20.608 42.4104C18.958 42.335 17.8308 42.073 16.8449 41.6898C15.81 41.3005 14.8732 40.6903 14.0986 39.9014C13.3101 39.1273 12.6999 38.19 12.3106 37.1555C11.9274 36.1696 11.665 35.0424 11.59 33.3924C11.5138 31.7387 11.4961 31.2105 11.4961 27C11.4961 22.7895 11.5138 22.2613 11.5896 20.608C11.6646 18.9576 11.9266 17.8308 12.3098 16.8445C12.6991 15.81 13.3097 14.8727 14.0986 14.0986C14.8727 13.3097 15.81 12.6995 16.8445 12.3102C17.8308 11.927 18.9576 11.665 20.608 11.5896C22.2613 11.5142 22.7895 11.4961 27 11.4961C31.2105 11.4961 31.7387 11.5142 33.392 11.59C35.0424 11.665 36.1692 11.927 37.1555 12.3098C38.19 12.6991 39.1273 13.3097 39.9018 14.0986C40.6903 14.8732 41.3009 15.81 41.6898 16.8445C42.0734 17.8308 42.3354 18.9576 42.4108 20.608C42.4862 22.2613 42.5039 22.7895 42.5039 27C42.5039 31.2105 42.4862 31.7387 42.4104 33.392Z" fill="#585858"/>
</svg>
