<svg width="34" height="34" viewBox="0 0 128 128" fill="none" xmlns="http://www.w3.org/2000/svg">
<path fill-rule="evenodd" clip-rule="evenodd" d="M104.02 80.2889C104.315 78.9618 105.63 78.1251 106.957 78.42L120.123 81.3457C121.45 81.6406 122.286 82.9555 121.991 84.2826C121.697 85.6097 120.382 86.4465 119.055 86.1516L105.889 83.2258C104.562 82.9309 103.725 81.616 104.02 80.2889Z" fill="#FF9595"/>
<path fill-rule="evenodd" clip-rule="evenodd" d="M81.4533 103.192C82.7326 102.732 84.1425 103.397 84.6022 104.676L88.808 116.379C89.2677 117.658 88.6033 119.068 87.324 119.528C86.0446 119.988 84.6348 119.323 84.175 118.044L79.9693 106.341C79.5095 105.062 80.1739 103.652 81.4533 103.192Z" fill="#E4002B"/>
<path fill-rule="evenodd" clip-rule="evenodd" d="M27.9421 4.01567C29.259 3.67785 30.6003 4.4715 30.9381 5.78833L34.6656 20.3184C35.0034 21.6353 34.2098 22.9766 32.8929 23.3144C31.5761 23.6523 30.2348 22.8586 29.8969 21.5418L26.1695 7.01166C25.8317 5.69483 26.6253 4.35348 27.9421 4.01567Z" fill="#E3B6E4"/>
<path fill-rule="evenodd" clip-rule="evenodd" d="M6.39996 47.2615C6.39996 45.902 7.50203 44.8 8.8615 44.8H21.4786C22.8381 44.8 23.9402 45.902 23.9402 47.2615C23.9402 48.621 22.8381 49.723 21.4786 49.723H8.8615C7.50203 49.723 6.39996 48.621 6.39996 47.2615Z" fill="#FF9595"/>
<path fill-rule="evenodd" clip-rule="evenodd" d="M95.2815 92.4198C96.1926 91.4107 97.7491 91.3313 98.7581 92.2424L108.3 100.858C109.309 101.769 109.389 103.326 108.478 104.335C107.567 105.344 106.01 105.423 105.001 104.512L95.4589 95.8964C94.4499 94.9853 94.3704 93.4288 95.2815 92.4198Z" fill="#E3B6E4"/>
<path fill-rule="evenodd" clip-rule="evenodd" d="M49.7843 4.00157C51.109 4.30726 51.935 5.62892 51.6293 6.95357L50.1524 13.3536C49.8467 14.6782 48.525 15.5043 47.2004 15.1986C45.8757 14.8929 45.0497 13.5712 45.3554 12.2466L46.8323 5.84657C47.138 4.52192 48.4597 3.69588 49.7843 4.00157Z" fill="#FFC4C0"/>
<path fill-rule="evenodd" clip-rule="evenodd" d="M8.72404 21.8653C9.42721 20.7018 10.9404 20.3286 12.1039 21.0318L28.8846 31.1732C30.0481 31.8764 30.4212 33.3896 29.7181 34.5531C29.0149 35.7166 27.5017 36.0898 26.3382 35.3866L9.55755 25.2451C8.39405 24.542 8.02088 23.0288 8.72404 21.8653Z" fill="#E4002B"/>
<path d="M116.242 43.6595L111.097 38.5095C110.494 37.9169 109.716 37.5347 108.879 37.4197C108.041 37.3047 107.189 37.4631 106.448 37.8713C104.193 39.1234 101.591 39.6068 99.0356 39.2485C96.4807 38.8902 94.112 37.7096 92.2877 35.8853C90.4634 34.0609 89.2829 31.6922 88.9245 29.1372C88.5662 26.5822 89.0496 23.98 90.3017 21.7243C90.7143 20.9859 90.8751 20.1332 90.76 19.2953C90.6448 18.4573 90.2599 17.6797 89.6635 17.08L84.332 11.7582C82.6469 10.0832 80.3676 9.14307 77.9917 9.14307C75.6158 9.14307 73.3364 10.0832 71.6513 11.7582L11.7579 71.6529C10.083 73.3381 9.14288 75.6175 9.14288 77.9935C9.14288 80.3694 10.083 82.6488 11.7579 84.334L16.9225 89.4987C17.5575 90.1149 18.3819 90.4987 19.2623 90.5878C20.1427 90.6769 21.0273 90.4661 21.7729 89.9896C24.0548 88.5427 26.7619 87.9173 29.4473 88.2166C32.1326 88.5159 34.6356 89.722 36.543 91.6357C38.4504 93.5495 39.6482 96.0565 39.9387 98.7429C40.2291 101.429 39.5948 104.134 38.1405 106.412C37.6677 107.16 37.4618 108.047 37.5563 108.927C37.6508 109.808 38.04 110.631 38.6609 111.262L43.6487 116.23C45.334 117.913 47.6178 118.857 49.9989 118.857C52.38 118.857 54.6638 117.913 56.349 116.23L116.242 56.3356C117.917 54.6513 118.857 52.3727 118.857 49.9975C118.857 47.6224 117.917 45.3438 116.242 43.6595Z" fill="#C599C6"/>
<path d="M104.264 68.3144L116.242 56.3354C117.917 54.6511 118.857 52.3725 118.857 49.9974C118.857 47.6222 117.917 45.3436 116.242 43.6593L111.097 38.5094C110.494 37.9167 109.716 37.5345 108.879 37.4195C108.041 37.3045 107.189 37.4629 106.448 37.8711C104.193 39.1232 101.59 39.6067 99.0356 39.2483C96.4807 38.89 94.1119 37.7094 92.2877 35.8851C90.4634 34.0608 89.2828 31.692 88.9245 29.137C88.5662 26.582 89.0496 23.9799 90.3017 21.7241C90.7142 20.9857 90.8751 20.1331 90.7599 19.2951C90.6448 18.4572 90.2599 17.6795 89.6635 17.0798L84.332 11.758C82.6469 10.083 80.3675 9.14288 77.9916 9.14288C75.6157 9.14288 73.3363 10.083 71.6513 11.758L59.6873 23.732L104.264 68.3144Z" fill="#E4002B"/>
<path d="M50.6983 55.5402C50.9203 55.2003 51.2321 54.9286 51.5992 54.7554C51.9663 54.5822 52.3743 54.5142 52.7777 54.559C53.1811 54.6037 53.5642 54.7595 53.8844 55.009C54.2046 55.2585 54.4493 55.5919 54.5914 55.9722L64.6063 82.6548C64.7253 82.9767 64.7672 83.3219 64.7288 83.6629C64.6905 84.0039 64.5729 84.3312 64.3854 84.6186V84.6186C64.1628 84.9582 63.8504 85.2295 63.483 85.4025C63.1156 85.5755 62.7075 85.6434 62.3039 85.5986C61.9003 85.5539 61.5169 85.3983 61.1963 85.1491C60.8757 84.8998 60.6303 84.5667 60.4874 84.1865L50.4578 57.5137C50.3401 57.189 50.3005 56.8411 50.3423 56.4982C50.3841 56.1553 50.5061 55.8271 50.6983 55.5402ZM62.353 61.8635C63.0507 60.766 64.0285 59.8746 65.1856 59.2811C66.295 58.7166 67.5379 58.467 68.7792 58.5594C70.0695 58.6721 71.3122 59.1005 72.3978 59.8068C73.4834 60.5131 74.3785 61.4757 75.0042 62.6097C75.5882 63.7116 75.855 64.9539 75.775 66.1985C75.6932 67.5048 75.2607 68.7649 74.5231 69.8462C73.8227 70.9486 72.8417 71.845 71.6806 72.4432C70.5677 73.0128 69.3187 73.2627 68.0723 73.1649C66.7849 73.0494 65.5458 72.618 64.4651 71.9089C63.3843 71.1998 62.4953 70.235 61.8768 69.0999C61.2913 67.9949 61.0228 66.7495 61.1011 65.5013C61.1887 64.1992 61.6207 62.9437 62.353 61.8635V61.8635ZM71.5677 67.9168C71.8438 67.5194 72.0329 67.0683 72.1225 66.5928C72.2122 66.1173 72.2005 65.6283 72.0881 65.1577C71.8337 64.2046 71.2382 63.3781 70.4146 62.8351C69.5911 62.2921 68.5969 62.0704 67.6207 62.212C66.6747 62.4163 65.8469 62.9843 65.3161 63.7935C64.7852 64.6027 64.5938 65.5881 64.7831 66.5372C64.8986 67.0122 65.1069 67.4597 65.3958 67.854C65.6848 68.2483 66.0488 68.5816 66.467 68.8348C67.2766 69.4054 68.2788 69.633 69.2554 69.4681C69.7292 69.3894 70.1806 69.2102 70.5794 68.9426C70.9782 68.6751 71.3152 68.3253 71.5677 67.9168V67.9168ZM40.4575 70.3027C41.1586 69.1978 42.1415 68.2997 43.3049 67.7008C44.4153 67.1339 45.6604 66.8842 46.9034 66.9791C48.1939 67.0993 49.4351 67.5347 50.518 68.2469C51.6008 68.9591 52.4922 69.9264 53.1137 71.0637C53.6952 72.1665 53.9619 73.4081 53.8844 74.6525C53.777 75.9504 53.346 77.2007 52.6308 78.289C51.9155 79.3773 50.9389 80.269 49.7901 80.8825C48.677 81.4516 47.4281 81.7014 46.1818 81.6042C44.8957 81.4885 43.6579 81.0574 42.5782 80.3492C41.4984 79.6411 40.6098 78.6776 39.9911 77.5441C39.4035 76.4399 39.1349 75.1938 39.2155 73.9455C39.3007 72.6422 39.7311 71.3849 40.4624 70.3027H40.4575ZM49.6772 76.356C49.9541 75.9591 50.144 75.5081 50.2346 75.0326C50.3251 74.5571 50.3141 74.0679 50.2025 73.597C49.9674 72.6333 49.3625 71.8009 48.5186 71.2797C48.1179 70.999 47.6658 70.8003 47.1881 70.695C46.7104 70.5897 46.2165 70.5798 45.735 70.666C44.7878 70.868 43.9584 71.4355 43.4271 72.2453C42.8958 73.0551 42.7055 74.0419 42.8974 74.9912C43.1603 75.9393 43.7577 76.76 44.579 77.3015C45.4003 77.8431 46.39 78.0688 47.3649 77.9369C47.8423 77.856 48.2965 77.6729 48.6965 77.4C49.0964 77.1271 49.4327 76.771 49.6821 76.356H49.6772Z" fill="white"/>
<path d="M100.636 66.581C100.378 66.5812 100.122 66.5306 99.8839 66.432C99.6455 66.3335 99.4289 66.1889 99.2464 66.0066L95.7755 62.5307C95.5868 62.349 95.4364 62.1313 95.3332 61.8905C95.2299 61.6497 95.1759 61.3907 95.1742 61.1287C95.1726 60.8667 95.2234 60.6071 95.3237 60.365C95.4239 60.123 95.5716 59.9034 95.758 59.7193C95.9444 59.5352 96.1657 59.3903 96.409 59.293C96.6523 59.1958 96.9125 59.1482 97.1745 59.1531C97.4364 59.1579 97.6947 59.2152 97.9342 59.3214C98.1737 59.4277 98.3895 59.5807 98.5689 59.7717L102.005 63.2082C102.28 63.4829 102.468 63.8329 102.544 64.2141C102.619 64.5952 102.581 64.9903 102.432 65.3493C102.283 65.7083 102.031 66.0151 101.708 66.2309C101.385 66.4467 101.005 66.5617 100.616 66.5614L100.636 66.581ZM91.9561 57.9012C91.4368 57.9003 90.939 57.6938 90.5717 57.3268L87.0959 53.8804C86.7274 53.5119 86.5204 53.0121 86.5204 52.491C86.5204 51.9699 86.7274 51.4701 87.0959 51.1016C87.4644 50.7332 87.9641 50.5261 88.4852 50.5261C89.0063 50.5261 89.5061 50.7332 89.8745 51.1016L93.3454 54.5726C93.6204 54.8472 93.8076 55.1973 93.8835 55.5784C93.9594 55.9596 93.9205 56.3546 93.7718 56.7137C93.623 57.0727 93.3711 57.3795 93.0479 57.5953C92.7247 57.811 92.3447 57.926 91.9561 57.9257V57.9012ZM83.2814 49.2213C83.0234 49.2215 82.7679 49.1709 82.5295 49.0724C82.2912 48.9738 82.0745 48.8292 81.892 48.6469L78.4408 45.176C78.0877 44.805 77.8936 44.3108 77.8997 43.7987C77.9058 43.2867 78.1117 42.7972 78.4734 42.4348C78.8352 42.0723 79.3243 41.8656 79.8364 41.8585C80.3484 41.8515 80.843 42.0449 81.2145 42.3973L84.6854 45.8682C84.9601 46.1426 85.1472 46.4922 85.2233 46.8728C85.2993 47.2535 85.2609 47.6482 85.1127 48.007C84.9646 48.3658 84.7134 48.6727 84.3909 48.8888C84.0685 49.105 83.6892 49.2207 83.301 49.2213H83.2814ZM74.6017 40.5415C74.3438 40.5417 74.0883 40.4911 73.8499 40.3925C73.6115 40.294 73.3949 40.1494 73.2124 39.9671L69.7415 36.4962C69.4031 36.1226 69.2212 35.6332 69.2336 35.1292C69.246 34.6253 69.4517 34.1454 69.8082 33.789C70.1646 33.4325 70.6445 33.2268 71.1484 33.2144C71.6523 33.202 72.1417 33.3839 72.5153 33.7223L75.9861 37.1884C76.2594 37.4633 76.4452 37.8129 76.5201 38.1932C76.5951 38.5735 76.5558 38.9675 76.4072 39.3255C76.2587 39.6835 76.0075 39.9895 75.6853 40.2051C75.3632 40.4206 74.9844 40.5359 74.5968 40.5366L74.6017 40.5415ZM65.9221 31.8666C65.4018 31.8683 64.9022 31.6635 64.5328 31.2971L61.0619 27.8261C60.7095 27.4546 60.5162 26.96 60.5232 26.4479C60.5302 25.9359 60.737 25.4468 61.0994 25.085C61.4618 24.7232 61.9513 24.5173 62.4633 24.5112C62.9754 24.5051 63.4696 24.6993 63.8406 25.0523L67.3114 28.5233C67.5864 28.7979 67.7736 29.148 67.8495 29.5291C67.9254 29.9102 67.8866 30.3053 67.7378 30.6643C67.589 31.0234 67.3371 31.3302 67.0139 31.5459C66.6907 31.7617 66.3107 31.8767 65.9221 31.8764V31.8666Z" fill="white"/>
</svg>
