<?xml version="1.0" encoding="UTF-8"?>
<svg width="24px" height="24px" viewBox="0 0 49 48" version="1.1" xmlns="http://www.w3.org/2000/svg" xmlns:xlink="http://www.w3.org/1999/xlink">
    <!-- Generator: Sketch 50.2 (55047) - http://www.bohemiancoding.com/sketch -->
    <title>icon_historico</title>
    <desc>Created with Sketch.</desc>
    <defs></defs>
    <g stroke="none" stroke-width="1" fill="none" fill-rule="evenodd">
        <g transform="translate(-431.000000, -240.000000)" fill="#3e3e3e" fill-rule="nonzero">
            <g transform="translate(48.000000, 171.000000)">
                <g transform="translate(383.000000, 69.000000)">
                    <path d="M40,21 C40,12.7157288 33.2842712,6 25,6 C16.7157288,6 10,12.7157288 10,21 C10,27.4044925 14.8794903,34.2357807 25,41.3612474 C35.1205097,34.2357807 40,27.4044925 40,21 Z M25,45 C13,36.9607503 7,28.9607503 7,21 C7,11.0588745 15.0588745,3 25,3 C34.9411255,3 43,11.0588745 43,21 C43,28.9607503 37,36.9607503 25,45 Z"></path>
                    <path d="M25,26 C27.7614237,26 30,23.7614237 30,21 C30,18.2385763 27.7614237,16 25,16 C22.2385763,16 20,18.2385763 20,21 C20,23.7614237 22.2385763,26 25,26 Z M25,29 C20.581722,29 17,25.418278 17,21 C17,16.581722 20.581722,13 25,13 C29.418278,13 33,16.581722 33,21 C33,25.418278 29.418278,29 25,29 Z" id="Oval"></path>
                </g>
            </g>
        </g>
    </g>
</svg>
