<?xml version="1.0" encoding="UTF-8"?>
<svg width="58px" height="58px" viewBox="0 0 58 58" version="1.1" xmlns="http://www.w3.org/2000/svg" xmlns:xlink="http://www.w3.org/1999/xlink">
    <!-- Generator: Sketch 50.2 (55047) - http://www.bohemiancoding.com/sketch -->
    <title>Estrela Avaliar</title>
    <desc>Created with Sketch.</desc>
    <defs></defs>
    <g  stroke="none" stroke-width="1" fill="none" fill-rule="evenodd">
        <g  transform="translate(-48.000000, -1008.000000)" fill-rule="nonzero" stroke="#fab125" stroke-width="3">
            <g id="Restaurante" transform="translate(47.000000, 939.000000)">
                <g id="Estrela-Avaliar" transform="translate(1.000000, 69.000000)">
                    <path d="M31.0461764,42.884244 L44.8195883,53.7275187 C45.0365609,53.8983329 45.3509242,53.8609141 45.5217384,53.6439414 C45.6275337,53.5095574 45.6573004,53.3304209 45.6006511,53.1690439 L39.5371221,35.8958705 C39.1440917,34.7762451 39.5922582,33.5345864 40.6097646,32.9240826 L56.2234917,23.5558463 C56.4602819,23.4137722 56.5370644,23.1066421 56.3949903,22.8698519 C56.3057119,22.7210545 56.1456682,22.6291859 55.9721542,22.6271347 L36.8241167,22.4007761 C35.7198431,22.3877219 34.7549601,21.651669 34.4505321,20.5901068 L29.9804383,5.00257084 C29.9043162,4.73712774 29.6274229,4.58365272 29.3619798,4.6597748 C29.1962537,4.70730068 29.0667034,4.83685361 29.019181,5.00258075 L24.5494517,20.5900574 C24.2450403,21.6516443 23.2801454,22.387722 22.1758526,22.4007762 L3.02749524,22.6271358 C2.75137216,22.6303999 2.53017629,22.856888 2.53344044,23.1330111 C2.53549161,23.3065252 2.62736015,23.4665688 2.77615763,23.5558473 L18.3898918,32.9240878 C19.4073883,33.5345857 19.8555573,34.7762274 19.4625445,35.8958468 L13.3992625,53.1689946 C13.3078012,53.4295506 13.4448796,53.714917 13.7054356,53.8063783 C13.8668134,53.8630257 14.0459496,53.8332568 14.1803323,53.7274598 L27.9532874,42.8842635 C28.8605364,42.170003 30.1389185,42.1699949 31.0461764,42.884244 Z" id="Shape"></path>
                </g>
            </g>
        </g>
    </g>
</svg>
