<?xml version="1.0" encoding="utf-8"?>
<svg width="20px" height="20px" viewBox="0 0 20 20" fill="#717171" xmlns="http://www.w3.org/2000/svg">
  <path d="M 10.651 3.31 C 9.928 3.31 9.347 3.92 9.347 4.677 C 9.347 5.437 9.928 6.046 10.651 6.046 C 11.375 6.046 11.956 5.437 11.956 4.677 C 11.956 3.92 11.375 3.31 10.651 3.31 Z M 10.452 6.447 L 10.24 6.447 L 10.452 6.447 C 10.467 6.447 10.452 6.447 10.452 6.447 Z M 10.24 6.447 L 9.9 6.447 C 9.46 6.447 8.977 6.567 8.624 6.773 C 7.845 7.219 7.319 7.635 6.991 8.201 C 6.61 8.87 6.567 9.628 6.567 10.682 C 6.567 10.98 6.794 11.219 7.078 11.234 C 7.36 11.234 7.587 10.996 7.602 10.699 L 7.602 10.682 C 7.602 9.672 7.658 9.138 7.871 8.75 C 8.043 8.453 8.355 8.171 8.935 7.813 L 8.468 10.178 L 8.424 10.372 C 8.368 10.668 8.411 10.907 8.567 11.159 L 9.46 12.601 L 9.716 13.017 L 11.758 16.317 C 11.972 16.674 12.422 16.778 12.766 16.556 C 13.104 16.331 13.204 15.856 12.991 15.499 L 12.977 15.484 L 10.24 11.04 L 10.497 9.955 L 10.68 9.152 L 11.063 7.488 C 11.162 6.953 10.737 6.447 10.24 6.447 Z M 11.304 8.128 L 10.978 9.583 C 10.99 9.598 11.006 9.611 11.021 9.628 C 11.559 10.178 12.255 10.384 13.232 10.623 C 13.501 10.699 13.784 10.52 13.857 10.236 C 13.926 9.955 13.757 9.658 13.486 9.583 L 13.474 9.583 C 12.536 9.346 12.056 9.168 11.744 8.853 C 11.574 8.707 11.446 8.469 11.304 8.128 Z M 8.212 11.382 L 7.758 13.657 L 6.312 15.412 C 6.042 15.723 6.072 16.212 6.37 16.495 C 6.667 16.778 7.134 16.747 7.403 16.436 L 7.417 16.42 L 8.993 14.518 C 9.076 14.415 9.135 14.294 9.162 14.16 L 9.347 13.212 L 8.212 11.382 Z"/>
</svg>